<mxfile host="app.diagrams.net" modified="2024-07-15T14:24:49.069Z" agent="Mozilla/5.0 (Windows NT 10.0; Win64; x64) AppleWebKit/537.36 (KHTML, like Gecko) Chrome/126.0.0.0 Safari/537.36 Edg/126.0.0.0" version="24.6.5" etag="-EWjhXz8zqG23FqUgk19" type="github">
  <diagram name="Page-1" id="fONOIK2cBX9LodO_oEL6">
    <mxGraphModel>
      <root>
        <mxCell id="0" />
        <mxCell id="1" parent="0" />
      </root>
    </mxGraphModel>
  </diagram>
</mxfile>
